<svg width="51" height="49" viewBox="0 0 51 49" fill="none" xmlns="http://www.w3.org/2000/svg">
<path d="M50.3204 49H0.648698C0.278013 49 0 48.7221 0 48.3516V46.4064C0 46.0359 0.278013 45.758 0.648698 45.758H50.3204C50.6911 45.758 50.9691 46.0359 50.9691 46.4064V48.3516C51 48.7221 50.6911 49 50.3204 49Z" fill="url(#paint0_linear_114_2229)"/>
<path d="M9.14336 26.121V41.1575C9.14336 41.8677 8.55644 42.4543 7.84596 42.4543H3.92288C3.21241 42.4543 2.62549 41.8677 2.62549 41.1575V26.121C2.62549 25.4108 3.21241 24.8242 3.92288 24.8242H7.84596C8.55644 24.8242 9.14336 25.4108 9.14336 26.121Z" fill="url(#paint1_linear_114_2229)"/>
<path d="M22.2411 14.3882V41.1884C22.2411 41.8986 21.6542 42.4852 20.9437 42.4852H16.9898C16.2793 42.4852 15.6924 41.8986 15.6924 41.1884V14.3882C15.6924 13.678 16.2793 13.0914 16.9898 13.0914H20.9129C21.6542 13.0605 22.2411 13.6471 22.2411 14.3882Z" fill="url(#paint2_linear_114_2229)"/>
<path d="M35.3075 20.903V41.1575C35.3075 41.8677 34.7206 42.4543 34.0102 42.4543H30.0562C29.3457 42.4543 28.7588 41.8677 28.7588 41.1575V20.903C28.7588 20.1928 29.3457 19.6062 30.0562 19.6062H33.9793C34.7206 19.6062 35.3075 20.1928 35.3075 20.903Z" fill="url(#paint3_linear_114_2229)"/>
<path d="M48.3743 14.3882V41.1884C48.3743 41.8986 47.7874 42.4852 47.0769 42.4852H43.1538C42.4434 42.4852 41.8564 41.8986 41.8564 41.1884V14.3882C41.8564 13.678 42.4434 13.0914 43.1538 13.0914H47.0769C47.7874 13.0605 48.3743 13.6471 48.3743 14.3882Z" fill="url(#paint4_linear_114_2229)"/>
<path d="M45.0999 0C43.3082 0 41.8255 1.45117 41.8255 3.27284C41.8255 3.55072 41.8873 3.82861 41.9491 4.10649L34.5971 7.78072C34.0102 7.00882 33.0835 6.51481 32.0332 6.51481C30.983 6.51481 30.0872 7.00882 29.4693 7.78072L22.1174 4.10649C22.1792 3.82861 22.241 3.55072 22.241 3.27284C22.241 1.45117 20.7583 0 18.9666 0C17.175 0 15.6922 1.45117 15.6922 3.27284C15.6922 3.89036 15.8776 4.44612 16.1556 4.90926L7.8152 12.4121C7.25917 12.0107 6.61047 11.7637 5.86911 11.7637C4.07746 11.7637 2.59473 13.2149 2.59473 15.0365C2.59473 16.8582 4.07746 18.2785 5.86911 18.2785C7.66075 18.2785 9.14349 16.8273 9.14349 15.0057C9.14349 14.3882 8.95814 13.8324 8.68013 13.3692L17.0205 5.86641C17.5766 6.2678 18.2253 6.51481 18.9666 6.51481C20.0169 6.51481 20.9127 6.02079 21.5305 5.2489L28.8824 8.954C28.8207 9.23188 28.7589 9.50977 28.7589 9.78765C28.7589 11.5784 30.2107 13.0605 32.0332 13.0605C33.8249 13.0605 35.3076 11.6093 35.3076 9.78765C35.3076 9.50977 35.2458 9.23188 35.1841 8.954L42.5669 5.27977C43.1538 6.05167 44.0805 6.54568 45.1308 6.54568C46.9224 6.54568 48.4051 5.09452 48.4051 3.27284C48.4051 1.45117 46.9224 0 45.0999 0ZM5.86911 16.3333C5.15863 16.3333 4.57171 15.7467 4.57171 15.0365C4.57171 14.3264 5.15863 13.7398 5.86911 13.7398C6.57958 13.7398 7.1665 14.3264 7.1665 15.0365C7.19739 15.7467 6.61047 16.3333 5.86911 16.3333ZM18.9666 4.56963C18.2561 4.56963 17.6692 3.98299 17.6692 3.27284C17.6692 2.5627 18.2561 1.97606 18.9666 1.97606C19.6771 1.97606 20.264 2.5627 20.264 3.27284C20.264 3.98299 19.6771 4.56963 18.9666 4.56963ZM32.0332 11.1153C31.3228 11.1153 30.7359 10.5287 30.7359 9.81852C30.7359 9.10838 31.3228 8.52174 32.0332 8.52174C32.7437 8.52174 33.3306 9.10838 33.3306 9.81852C33.3306 10.5287 32.7437 11.1153 32.0332 11.1153ZM45.0999 4.56963C44.3894 4.56963 43.8025 3.98299 43.8025 3.27284C43.8025 2.5627 44.3894 1.97606 45.0999 1.97606C45.8104 1.97606 46.3973 2.5627 46.3973 3.27284C46.3973 3.98299 45.8412 4.56963 45.0999 4.56963Z" fill="url(#paint5_linear_114_2229)"/>
<defs>
<linearGradient id="paint0_linear_114_2229" x1="0" y1="47.3713" x2="50.9889" y2="47.3713" gradientUnits="userSpaceOnUse">
<stop stop-color="#93D94D"/>
<stop offset="0.852" stop-color="#3B8B67"/>
<stop offset="1" stop-color="#357356"/>
</linearGradient>
<linearGradient id="paint1_linear_114_2229" x1="2.61461" y1="33.6499" x2="9.15167" y2="33.6499" gradientUnits="userSpaceOnUse">
<stop stop-color="#93D94D"/>
<stop offset="0.852" stop-color="#3B8B67"/>
<stop offset="1" stop-color="#357356"/>
</linearGradient>
<linearGradient id="paint2_linear_114_2229" x1="15.689" y1="27.7694" x2="22.226" y2="27.7694" gradientUnits="userSpaceOnUse">
<stop stop-color="#93D94D"/>
<stop offset="0.852" stop-color="#3B8B67"/>
<stop offset="1" stop-color="#357356"/>
</linearGradient>
<linearGradient id="paint3_linear_114_2229" x1="28.7628" y1="31.0364" x2="35.2999" y2="31.0364" gradientUnits="userSpaceOnUse">
<stop stop-color="#93D94D"/>
<stop offset="0.9999" stop-color="#3B8B67"/>
<stop offset="1" stop-color="#357356"/>
</linearGradient>
<linearGradient id="paint4_linear_114_2229" x1="41.837" y1="27.7694" x2="48.3741" y2="27.7694" gradientUnits="userSpaceOnUse">
<stop stop-color="#93D94D"/>
<stop offset="0.9999" stop-color="#3B8B67"/>
<stop offset="1" stop-color="#357356"/>
</linearGradient>
<linearGradient id="paint5_linear_114_2229" x1="2.61474" y1="9.14648" x2="48.3718" y2="9.14648" gradientUnits="userSpaceOnUse">
<stop stop-color="#93D94D"/>
<stop offset="0.9999" stop-color="#3B8B67"/>
<stop offset="1" stop-color="#357356"/>
</linearGradient>
</defs>
</svg>
